<?xml version="1.0" encoding="UTF-8"?>
<svg version="1.1" xmlns="http://www.w3.org/2000/svg" width="720" height="720">
<path d="M0 0 C1.30937027 -0.0033284 2.61874054 -0.0066568 3.9677887 -0.01008606 C6.72682519 -0.0160273 9.48583062 -0.0179314 12.24487305 -0.01733398 C15.02651529 -0.01725313 17.80799143 -0.02413849 20.58959961 -0.0378418 C41.33628304 -0.1383438 61.70133326 0.40401265 82.12890625 4.35546875 C83.24579834 4.5676001 84.36269043 4.77973145 85.51342773 4.99829102 C107.41653599 9.29382828 129.37109996 14.94157058 149.8984375 23.83203125 C152.24077314 24.83967753 154.58542303 25.80953334 156.953125 26.75390625 C169.82340068 31.90379132 182.3438963 37.62197279 194.0859375 45.0390625 C196.10622516 46.31801677 196.10622516 46.31801677 199.00390625 47.16796875 C199.00390625 47.82796875 199.00390625 48.48796875 199.00390625 49.16796875 C199.68839844 49.24273437 200.37289062 49.3175 201.078125 49.39453125 C204.84543472 50.39042888 207.66181288 52.34470387 210.81640625 54.54296875 C211.45715088 54.98125 212.09789551 55.41953125 212.75805664 55.87109375 C214.12572799 56.80767827 215.4911458 57.74756061 216.85449219 58.69042969 C219.07186952 60.21468771 221.30517617 61.71293334 223.54296875 63.20703125 C225.00936887 64.19363258 226.47552129 65.18060218 227.94140625 66.16796875 C228.64563721 66.63638184 229.34986816 67.10479492 230.07543945 67.58740234 C231.75435562 68.72959347 233.38479887 69.94246829 235.00390625 71.16796875 C235.00390625 71.82796875 235.00390625 72.48796875 235.00390625 73.16796875 C235.66390625 73.35359375 236.32390625 73.53921875 237.00390625 73.73046875 C240.67588304 75.48995763 243.25341657 77.8678052 246.234375 80.609375 C247.93205131 82.23853591 247.93205131 82.23853591 250.00390625 83.16796875 C250.00390625 83.82796875 250.00390625 84.48796875 250.00390625 85.16796875 C250.56335938 85.40902344 251.1228125 85.65007812 251.69921875 85.8984375 C254.48544479 87.43322303 256.5465504 89.31886169 258.87890625 91.48046875 C261.66034822 94.03694115 264.42663619 96.56067148 267.37890625 98.91796875 C269.98008445 101.14755006 271.87909125 103.49481439 274.00390625 106.16796875 C274.76703125 106.76609375 275.53015625 107.36421875 276.31640625 107.98046875 C280.01669651 110.99233291 282.92344493 114.54032022 286.00390625 118.16796875 C286.59171875 118.82925781 287.17953125 119.49054688 287.78515625 120.171875 C288.33171875 120.78933594 288.87828125 121.40679687 289.44140625 122.04296875 C289.93511719 122.59726563 290.42882812 123.1515625 290.9375 123.72265625 C292.00390625 125.16796875 292.00390625 125.16796875 292.00390625 127.16796875 C292.66390625 127.16796875 293.32390625 127.16796875 294.00390625 127.16796875 C295.35799945 129.15397212 296.68848249 131.15614418 298.00390625 133.16796875 C298.70515625 133.84859375 299.40640625 134.52921875 300.12890625 135.23046875 C302.23285365 137.40454773 303.05471207 139.32038621 304.00390625 142.16796875 C304.66390625 142.16796875 305.32390625 142.16796875 306.00390625 142.16796875 C307.74209157 144.44569661 309.35370516 146.72515643 310.94140625 149.10546875 C311.66034058 150.17027466 311.66034058 150.17027466 312.39379883 151.2565918 C313.93919176 153.55469442 315.47213249 155.86077028 317.00390625 158.16796875 C317.52919922 158.95268555 318.05449219 159.73740234 318.59570312 160.54589844 C320.13663751 162.85158579 321.6661634 165.16437783 323.19140625 167.48046875 C323.67279053 168.20290771 324.1541748 168.92534668 324.65014648 169.66967773 C328.00390625 174.82029177 328.00390625 174.82029177 328.00390625 178.16796875 C328.66390625 178.16796875 329.32390625 178.16796875 330.00390625 178.16796875 C334.80212219 186.5830217 338.94258466 195.24421755 343.00585938 204.02783203 C343.95359366 206.06008221 344.91981395 208.08214034 345.89453125 210.1015625 C349.28138663 217.15266072 352.25569479 224.23598359 354.765625 231.65625 C355.748808 234.44451978 356.80779663 237.14807112 357.93359375 239.87890625 C360.12659632 245.31818695 361.82696274 250.84589876 363.44140625 256.48046875 C363.74216064 257.52807373 364.04291504 258.57567871 364.3527832 259.6550293 C372.11571284 287.02064838 377.14603605 314.6424167 377.171875 343.1640625 C377.1752034 344.47343277 377.1785318 345.78280304 377.18196106 347.1318512 C377.1879023 349.89088769 377.1898064 352.64989312 377.18920898 355.40893555 C377.18912813 358.19057779 377.19601349 360.97205393 377.2097168 363.75366211 C377.3102188 384.50034554 376.76786235 404.86539576 372.81640625 425.29296875 C372.6042749 426.40986084 372.39214355 427.52675293 372.17358398 428.67749023 C367.87804672 450.58059849 362.23030442 472.53516246 353.33984375 493.0625 C352.33219747 495.40483564 351.36234166 497.74948553 350.41796875 500.1171875 C345.26808368 512.98746318 339.54990221 525.5079588 332.1328125 537.25 C330.85385823 539.27028766 330.85385823 539.27028766 330.00390625 542.16796875 C329.34390625 542.16796875 328.68390625 542.16796875 328.00390625 542.16796875 C327.92914062 542.85246094 327.854375 543.53695312 327.77734375 544.2421875 C326.78144612 548.00949722 324.82717113 550.82587538 322.62890625 553.98046875 C322.190625 554.62121338 321.75234375 555.26195801 321.30078125 555.92211914 C320.36419673 557.28979049 319.42431439 558.6552083 318.48144531 560.01855469 C316.95718729 562.23593202 315.45894166 564.46923867 313.96484375 566.70703125 C312.97824242 568.17343137 311.99127282 569.63958379 311.00390625 571.10546875 C310.53549316 571.80969971 310.06708008 572.51393066 309.58447266 573.23950195 C308.44228153 574.91841812 307.22940671 576.54886137 306.00390625 578.16796875 C305.34390625 578.16796875 304.68390625 578.16796875 304.00390625 578.16796875 C303.81828125 578.82796875 303.63265625 579.48796875 303.44140625 580.16796875 C301.68191737 583.83994554 299.3040698 586.41747907 296.5625 589.3984375 C294.93333909 591.09611381 294.93333909 591.09611381 294.00390625 593.16796875 C293.34390625 593.16796875 292.68390625 593.16796875 292.00390625 593.16796875 C291.76285156 593.72742188 291.52179687 594.286875 291.2734375 594.86328125 C289.73865197 597.64950729 287.85301331 599.7106129 285.69140625 602.04296875 C283.13493385 604.82441072 280.61120352 607.59069869 278.25390625 610.54296875 C276.02432494 613.14414695 273.67706061 615.04315375 271.00390625 617.16796875 C270.40578125 617.93109375 269.80765625 618.69421875 269.19140625 619.48046875 C266.17954209 623.18075901 262.63155478 626.08750743 259.00390625 629.16796875 C258.34261719 629.75578125 257.68132813 630.34359375 257 630.94921875 C256.38253906 631.49578125 255.76507812 632.04234375 255.12890625 632.60546875 C254.57460938 633.09917969 254.0203125 633.59289062 253.44921875 634.1015625 C252.00390625 635.16796875 252.00390625 635.16796875 250.00390625 635.16796875 C250.00390625 635.82796875 250.00390625 636.48796875 250.00390625 637.16796875 C248.01790288 638.52206195 246.01573082 639.85254499 244.00390625 641.16796875 C242.98296875 642.21984375 242.98296875 642.21984375 241.94140625 643.29296875 C239.76732727 645.39691615 237.85148879 646.21877457 235.00390625 647.16796875 C235.00390625 647.82796875 235.00390625 648.48796875 235.00390625 649.16796875 C232.72617839 650.90615407 230.44671857 652.51776766 228.06640625 654.10546875 C227.35653564 654.5847583 226.64666504 655.06404785 225.9152832 655.55786133 C223.61718058 657.10325426 221.31110472 658.63619499 219.00390625 660.16796875 C218.21918945 660.69326172 217.43447266 661.21855469 216.62597656 661.75976562 C214.32028921 663.30070001 212.00749717 664.8302259 209.69140625 666.35546875 C208.96896729 666.83685303 208.24652832 667.3182373 207.50219727 667.81420898 C202.35158323 671.16796875 202.35158323 671.16796875 199.00390625 671.16796875 C199.00390625 671.82796875 199.00390625 672.48796875 199.00390625 673.16796875 C190.5888533 677.96618469 181.92765745 682.10664716 173.14404297 686.16992188 C171.11179279 687.11765616 169.08973466 688.08387645 167.0703125 689.05859375 C160.01921428 692.44544913 152.93589141 695.41975729 145.515625 697.9296875 C142.72735522 698.9128705 140.02380388 699.97185913 137.29296875 701.09765625 C131.85368805 703.29065882 126.32597624 704.99102524 120.69140625 706.60546875 C119.64380127 706.90622314 118.59619629 707.20697754 117.5168457 707.5168457 C90.15122662 715.27977534 62.5294583 720.31009855 34.0078125 720.3359375 C32.0437571 720.3409301 32.0437571 720.3409301 30.0400238 720.34602356 C27.28098731 720.3519648 24.52198188 720.3538689 21.76293945 720.35327148 C18.98129721 720.35319063 16.19982107 720.36007599 13.41821289 720.3737793 C-7.32847054 720.4742813 -27.69352076 719.93192485 -48.12109375 715.98046875 C-49.23798584 715.7683374 -50.35487793 715.55620605 -51.50561523 715.33764648 C-73.40872349 711.04210922 -95.36328746 705.39436692 -115.890625 696.50390625 C-118.23296064 695.49625997 -120.57761053 694.52640416 -122.9453125 693.58203125 C-135.81558818 688.43214618 -148.3360838 682.71396471 -160.078125 675.296875 C-162.09841266 674.01792073 -162.09841266 674.01792073 -164.99609375 673.16796875 C-164.99609375 672.50796875 -164.99609375 671.84796875 -164.99609375 671.16796875 C-165.68058594 671.09320312 -166.36507812 671.0184375 -167.0703125 670.94140625 C-170.83762222 669.94550862 -173.65400038 667.99123363 -176.80859375 665.79296875 C-177.44933838 665.3546875 -178.09008301 664.91640625 -178.75024414 664.46484375 C-180.11791549 663.52825923 -181.4833333 662.58837689 -182.84667969 661.64550781 C-185.06405702 660.12124979 -187.29736367 658.62300416 -189.53515625 657.12890625 C-191.00155637 656.14230492 -192.46770879 655.15533532 -193.93359375 654.16796875 C-194.98994019 653.46534912 -194.98994019 653.46534912 -196.06762695 652.74853516 C-197.74654312 651.60634403 -199.37698637 650.39346921 -200.99609375 649.16796875 C-200.99609375 648.50796875 -200.99609375 647.84796875 -200.99609375 647.16796875 C-201.65609375 646.98234375 -202.31609375 646.79671875 -202.99609375 646.60546875 C-206.66807054 644.84597987 -209.24560407 642.4681323 -212.2265625 639.7265625 C-213.92423881 638.09740159 -213.92423881 638.09740159 -215.99609375 637.16796875 C-215.99609375 636.50796875 -215.99609375 635.84796875 -215.99609375 635.16796875 C-216.55554688 634.92691406 -217.115 634.68585937 -217.69140625 634.4375 C-220.47763229 632.90271447 -222.5387379 631.01707581 -224.87109375 628.85546875 C-227.65253572 626.29899635 -230.41882369 623.77526602 -233.37109375 621.41796875 C-235.97227195 619.18838744 -237.87127875 616.84112311 -239.99609375 614.16796875 C-240.75921875 613.56984375 -241.52234375 612.97171875 -242.30859375 612.35546875 C-246.00888401 609.34360459 -248.91563243 605.79561728 -251.99609375 602.16796875 C-252.58390625 601.50667969 -253.17171875 600.84539063 -253.77734375 600.1640625 C-254.32390625 599.54660156 -254.87046875 598.92914062 -255.43359375 598.29296875 C-255.92730469 597.73867188 -256.42101562 597.184375 -256.9296875 596.61328125 C-257.99609375 595.16796875 -257.99609375 595.16796875 -257.99609375 593.16796875 C-258.65609375 593.16796875 -259.31609375 593.16796875 -259.99609375 593.16796875 C-261.6171875 591.33984375 -261.6171875 591.33984375 -263.43359375 588.91796875 C-264.03042969 588.1290625 -264.62726563 587.34015625 -265.2421875 586.52734375 C-265.82097656 585.74875 -266.39976562 584.97015625 -266.99609375 584.16796875 C-267.56457031 583.45125 -268.13304687 582.73453125 -268.71875 581.99609375 C-269.99609375 580.16796875 -269.99609375 580.16796875 -269.99609375 578.16796875 C-270.65609375 578.16796875 -271.31609375 578.16796875 -271.99609375 578.16796875 C-273.73427907 575.89024089 -275.34589266 573.61078107 -276.93359375 571.23046875 C-277.65252808 570.16566284 -277.65252808 570.16566284 -278.38598633 569.0793457 C-279.93137926 566.78124308 -281.46431999 564.47516722 -282.99609375 562.16796875 C-283.52138672 561.38325195 -284.04667969 560.59853516 -284.58789062 559.79003906 C-286.12882501 557.48435171 -287.6583509 555.17155967 -289.18359375 552.85546875 C-289.66497803 552.13302979 -290.1463623 551.41059082 -290.64233398 550.66625977 C-293.99609375 545.51564573 -293.99609375 545.51564573 -293.99609375 542.16796875 C-294.65609375 542.16796875 -295.31609375 542.16796875 -295.99609375 542.16796875 C-300.79430969 533.7529158 -304.93477216 525.09171995 -308.99804688 516.30810547 C-309.94578116 514.27585529 -310.91200145 512.25379716 -311.88671875 510.234375 C-315.27357413 503.18327678 -318.24788229 496.09995391 -320.7578125 488.6796875 C-321.7409955 485.89141772 -322.79998413 483.18786638 -323.92578125 480.45703125 C-326.11878382 475.01775055 -327.81915024 469.49003874 -329.43359375 463.85546875 C-329.73434814 462.80786377 -330.03510254 461.76025879 -330.3449707 460.6809082 C-338.10790034 433.31528912 -343.13822355 405.6935208 -343.1640625 377.171875 C-343.1673909 375.86250473 -343.1707193 374.55313446 -343.17414856 373.2040863 C-343.1800898 370.44504981 -343.1819939 367.68604438 -343.18139648 364.92700195 C-343.18131563 362.14535971 -343.18820099 359.36388357 -343.2019043 356.58227539 C-343.3024063 335.83559196 -342.76004985 315.47054174 -338.80859375 295.04296875 C-338.5964624 293.92607666 -338.38433105 292.80918457 -338.16577148 291.65844727 C-333.87023422 269.75533901 -328.22249192 247.80077504 -319.33203125 227.2734375 C-318.32438497 224.93110186 -317.35452916 222.58645197 -316.41015625 220.21875 C-311.26027118 207.34847432 -305.54208971 194.8279787 -298.125 183.0859375 C-296.84604573 181.06564984 -296.84604573 181.06564984 -295.99609375 178.16796875 C-295.33609375 178.16796875 -294.67609375 178.16796875 -293.99609375 178.16796875 C-293.92132813 177.48347656 -293.8465625 176.79898438 -293.76953125 176.09375 C-292.77363362 172.32644028 -290.81935863 169.51006212 -288.62109375 166.35546875 C-288.1828125 165.71472412 -287.74453125 165.07397949 -287.29296875 164.41381836 C-286.35638423 163.04614701 -285.41650189 161.6807292 -284.47363281 160.31738281 C-282.94937479 158.10000548 -281.45112916 155.86669883 -279.95703125 153.62890625 C-278.97042992 152.16250613 -277.98346032 150.69635371 -276.99609375 149.23046875 C-276.52768066 148.52623779 -276.05926758 147.82200684 -275.57666016 147.09643555 C-274.43446903 145.41751938 -273.22159421 143.78707613 -271.99609375 142.16796875 C-271.33609375 142.16796875 -270.67609375 142.16796875 -269.99609375 142.16796875 C-269.71765625 141.17796875 -269.71765625 141.17796875 -269.43359375 140.16796875 C-267.67410487 136.49599196 -265.2962573 133.91845843 -262.5546875 130.9375 C-260.92552659 129.23982369 -260.92552659 129.23982369 -259.99609375 127.16796875 C-259.33609375 127.16796875 -258.67609375 127.16796875 -257.99609375 127.16796875 C-257.75503906 126.60851562 -257.51398438 126.0490625 -257.265625 125.47265625 C-255.73083947 122.68643021 -253.84520081 120.6253246 -251.68359375 118.29296875 C-249.12712135 115.51152678 -246.60339102 112.74523881 -244.24609375 109.79296875 C-242.01651244 107.19179055 -239.66924811 105.29278375 -236.99609375 103.16796875 C-236.39796875 102.40484375 -235.79984375 101.64171875 -235.18359375 100.85546875 C-232.17172959 97.15517849 -228.62374228 94.24843007 -224.99609375 91.16796875 C-224.00416016 90.28625 -224.00416016 90.28625 -222.9921875 89.38671875 C-222.37472656 88.84015625 -221.75726563 88.29359375 -221.12109375 87.73046875 C-220.56679687 87.23675781 -220.0125 86.74304688 -219.44140625 86.234375 C-217.99609375 85.16796875 -217.99609375 85.16796875 -215.99609375 85.16796875 C-215.99609375 84.50796875 -215.99609375 83.84796875 -215.99609375 83.16796875 C-214.16796875 81.546875 -214.16796875 81.546875 -211.74609375 79.73046875 C-210.9571875 79.13363281 -210.16828125 78.53679687 -209.35546875 77.921875 C-208.576875 77.34308594 -207.79828125 76.76429687 -206.99609375 76.16796875 C-206.279375 75.59949219 -205.56265625 75.03101562 -204.82421875 74.4453125 C-202.99609375 73.16796875 -202.99609375 73.16796875 -200.99609375 73.16796875 C-200.99609375 72.50796875 -200.99609375 71.84796875 -200.99609375 71.16796875 C-198.71836589 69.42978343 -196.43890607 67.81816984 -194.05859375 66.23046875 C-193.34872314 65.7511792 -192.63885254 65.27188965 -191.9074707 64.77807617 C-189.60936808 63.23268324 -187.30329222 61.69974251 -184.99609375 60.16796875 C-184.21137695 59.64267578 -183.42666016 59.11738281 -182.61816406 58.57617188 C-180.31247671 57.03523749 -177.99968467 55.5057116 -175.68359375 53.98046875 C-174.96115479 53.49908447 -174.23871582 53.0177002 -173.49438477 52.52172852 C-168.34377073 49.16796875 -168.34377073 49.16796875 -164.99609375 49.16796875 C-164.99609375 48.50796875 -164.99609375 47.84796875 -164.99609375 47.16796875 C-156.5810408 42.36975281 -147.91984495 38.22929034 -139.13623047 34.16601562 C-137.10398029 33.21828134 -135.08192216 32.25206105 -133.0625 31.27734375 C-126.01140178 27.89048837 -118.92807891 24.91618021 -111.5078125 22.40625 C-108.71954272 21.423067 -106.01599138 20.36407837 -103.28515625 19.23828125 C-97.84587555 17.04527868 -92.31816374 15.34491226 -86.68359375 13.73046875 C-85.63598877 13.42971436 -84.58838379 13.12895996 -83.5090332 12.8190918 C-56.14341412 5.05616216 -28.5216458 0.02583895 0 0 Z " fill="#FEFEFE" transform="translate(342.99609375,-0.16796875)"/>
<path d="M0 0 C2.14404169 0.09706713 4.29126751 0.12978536 6.4375 0.125 C7.59121094 0.12757813 8.74492187 0.13015625 9.93359375 0.1328125 C13.04125667 0.13895922 13.04125667 0.13895922 16 -1 C22.54098361 -1.2295082 22.54098361 -1.2295082 25 0 C26.61101569 0.11870148 28.22666086 0.17708684 29.84179688 0.20532227 C30.850448 0.22526749 31.85909912 0.24521271 32.89831543 0.26576233 C33.99405884 0.28247482 35.08980225 0.29918732 36.21875 0.31640625 C37.34639771 0.33718735 38.47404541 0.35796844 39.63586426 0.37937927 C43.25717921 0.44490286 46.87857086 0.50366378 50.5 0.5625 C52.91146588 0.60570058 55.32292438 0.64931536 57.734375 0.69335938 C62.19722695 0.77265789 66.66007877 0.85158055 71.12304688 0.92407227 C72.1148999 0.94116241 73.10675293 0.95825256 74.12866211 0.9758606 C75.9992378 0.99158657 77.87027175 0.9812281 79.74047852 0.94088745 C84.94039527 0.83162645 88.9831095 1.45345361 94 3 C96.40959756 3.21650736 98.82759067 3.35178345 101.24609375 3.4140625 C101.90207047 3.43342865 102.55804718 3.4527948 103.23390198 3.4727478 C105.30164128 3.53188909 107.36943829 3.57866229 109.4375 3.625 C110.85093394 3.66324033 112.26434609 3.70229545 113.67773438 3.7421875 C117.11828852 3.83753452 120.55900839 3.92180287 124 4 C124.33 5.32 124.66 6.64 125 8 C123.68 8.33 122.36 8.66 121 9 C121 9.66 121 10.32 121 11 C104.45857742 11.15375993 87.91711518 11.30179692 71.37558079 11.4429636 C63.69559111 11.50863961 56.01562672 11.57620998 48.33569336 11.64819336 C41.64424971 11.71090695 34.95278595 11.77011378 28.2612738 11.82505554 C24.71602342 11.85428831 21.17080863 11.88531365 17.62561226 11.92053413 C13.67435646 11.95972314 9.72306031 11.99108509 5.77172852 12.02172852 C4.58778 12.03467453 3.40383148 12.04762054 2.18400574 12.06095886 C0.57904739 12.0715181 0.57904739 12.0715181 -1.05833435 12.08229065 C-1.99395423 12.09058679 -2.92957411 12.09888292 -3.8935461 12.10743046 C-6 12 -6 12 -7 11 C-8.83604388 10.91143105 -10.67551617 10.89311357 -12.51367188 10.90234375 C-13.69159302 10.90564697 -14.86951416 10.9089502 -16.08312988 10.91235352 C-17.36538452 10.92065186 -18.64763916 10.9289502 -19.96875 10.9375 C-21.96332518 10.94328405 -23.95790039 10.94906272 -25.9524765 10.95451355 C-29.46833675 10.96548152 -32.98416485 10.98294891 -36.5 11 C-40.69144194 11.02032765 -44.88286401 11.03957081 -49.07434082 11.05102539 C-51.68853476 11.05860627 -54.30271993 11.07072854 -56.91687012 11.08764648 C-58.09479126 11.09094971 -59.2727124 11.09425293 -60.48632812 11.09765625 C-61.52921997 11.10289307 -62.57211182 11.10812988 -63.64660645 11.11352539 C-66 11 -66 11 -67 10 C-69.78299002 9.87062857 -72.52875903 9.8102672 -75.3125 9.8125 C-76.13411621 9.81185547 -76.95573242 9.81121094 -77.80224609 9.81054688 C-83.33243521 9.85824896 -88.47790642 10.47578624 -93.90625 11.55078125 C-97.82874704 12.12033574 -101.66645486 12.19102105 -105.625 12.1875 C-106.67518311 12.1884668 -106.67518311 12.1884668 -107.74658203 12.18945312 C-112.72922509 12.13538745 -112.72922509 12.13538745 -115 11 C-116.56004473 10.90303195 -118.12445187 10.87021272 -119.6875 10.875 C-120.51636719 10.87242187 -121.34523438 10.86984375 -122.19921875 10.8671875 C-125.06478598 10.95103099 -125.06478598 10.95103099 -128.12109375 11.5 C-133.22127898 12.15742569 -138.23880369 12.14514195 -143.375 12.125 C-144.88900391 12.13080078 -144.88900391 12.13080078 -146.43359375 12.13671875 C-147.39136719 12.13542969 -148.34914063 12.13414062 -149.3359375 12.1328125 C-150.20782715 12.13168457 -151.0797168 12.13055664 -151.97802734 12.12939453 C-154 12 -154 12 -155 11 C-158.03066798 11.09385685 -161.03763818 11.24618584 -164.0625 11.4375 C-170.6035601 11.80105485 -177.13576212 12.13072307 -183.6875 12.1875 C-185.48767578 12.20876953 -185.48767578 12.20876953 -187.32421875 12.23046875 C-190.16072441 12.05262196 -192.20935761 11.73211561 -194.890625 11.0234375 C-202.1199149 9.29434328 -209.66622947 9.56408654 -217.0625 9.4375 C-219.34501563 9.39320046 -221.62741063 9.34622194 -223.90977478 9.29469299 C-225.31996896 9.26336846 -226.73026726 9.23629905 -228.14064026 9.21446228 C-231.52357028 9.14436777 -234.83788589 8.93152133 -238.18969727 8.49291992 C-241.13949566 8.11131917 -243.90369592 7.87169618 -246.8671875 7.8671875 C-247.68960938 7.86589844 -248.51203125 7.86460937 -249.359375 7.86328125 C-250.18953125 7.86714844 -251.0196875 7.87101562 -251.875 7.875 C-253.15503906 7.86919922 -253.15503906 7.86919922 -254.4609375 7.86328125 C-255.275625 7.86457031 -256.0903125 7.86585938 -256.9296875 7.8671875 C-258.03159424 7.86887939 -258.03159424 7.86887939 -259.15576172 7.87060547 C-261.09616544 7.8882842 -261.09616544 7.8882842 -263 9 C-265.96803929 9.09874103 -268.90741546 9.13893232 -271.875 9.125 C-273.09896484 9.13080078 -273.09896484 9.13080078 -274.34765625 9.13671875 C-275.13785156 9.13542969 -275.92804688 9.13414062 -276.7421875 9.1328125 C-277.4626123 9.13168457 -278.18303711 9.13055664 -278.92529297 9.12939453 C-281 9 -281 9 -282.76774597 8.5 C-285.49244889 7.88969694 -287.99759593 7.87277527 -290.79077148 7.87060547 C-291.95555527 7.86745331 -293.12033905 7.86430115 -294.32041931 7.86105347 C-295.57464188 7.8630777 -296.82886444 7.86510193 -298.12109375 7.8671875 C-299.41314224 7.86623077 -300.70519073 7.86527405 -302.03639221 7.86428833 C-304.7691467 7.86281571 -307.50186846 7.86495156 -310.23461914 7.86962891 C-313.72932517 7.87532028 -317.2239543 7.87204819 -320.71865749 7.86605644 C-324.06114233 7.86156343 -327.40360674 7.86471431 -330.74609375 7.8671875 C-331.99829208 7.86516327 -333.25049042 7.86313904 -334.54063416 7.86105347 C-336.29253807 7.86578171 -336.29253807 7.86578171 -338.07983398 7.87060547 C-339.10479477 7.87140106 -340.12975555 7.87219666 -341.18577576 7.87301636 C-343.89876266 7.99543196 -346.35333247 8.41608929 -349 9 C-358.90901585 9.80010687 -368.33693341 7.92345401 -378 6 C-377.67 5.01 -377.34 4.02 -377 3 C-360.30310702 -4.71052533 -336.36059338 -2.29326897 -318.35009766 -2.06494141 C-316.72038297 -2.04544504 -315.09066286 -2.02639567 -313.4609375 -2.0078125 C-312.27952682 -1.99350693 -312.27952682 -1.99350693 -311.07424927 -1.97891235 C-304.77075769 -1.93359276 -298.51753782 -2.23249602 -292.23397827 -2.7258606 C-287.19967637 -3.09983819 -287.19967637 -3.09983819 -285 -2 C-282.19990412 -1.90069253 -279.42527349 -1.86020141 -276.625 -1.8671875 C-275.36635132 -1.86575241 -275.36635132 -1.86575241 -274.08227539 -1.86428833 C-272.30012945 -1.8636067 -270.51798104 -1.86545978 -268.73583984 -1.86962891 C-266.03867824 -1.87492407 -263.34168728 -1.86971129 -260.64453125 -1.86328125 C-258.9088538 -1.86394308 -257.17317646 -1.8652264 -255.4375 -1.8671875 C-254.64230957 -1.86516327 -253.84711914 -1.86313904 -253.02783203 -1.86105347 C-249.14704759 -1.87686639 -245.37127068 -2.04213649 -241.51733398 -2.50439453 C-234.62060347 -3.24946745 -227.7012705 -3.11074793 -220.77430916 -3.07516479 C-218.23970325 -3.06226874 -215.70515034 -3.05585324 -213.17051697 -3.05102539 C-207.80115387 -3.0396748 -202.43183533 -3.02039656 -197.0625 -3 C-190.81275696 -2.97637726 -184.56303816 -2.95602712 -178.31326103 -2.94406128 C-175.8165594 -2.9375815 -173.31993392 -2.92508149 -170.82325745 -2.91235352 C-169.29892035 -2.90872251 -167.77458256 -2.90537059 -166.25024414 -2.90234375 C-165.55673355 -2.89717743 -164.86322296 -2.89201111 -164.1486969 -2.88668823 C-161.1410115 -2.88635567 -158.88042973 -3.03985676 -156 -4 C-154.13074109 -4.08371983 -152.25855909 -4.10730367 -150.38745117 -4.09765625 C-149.22771286 -4.09439331 -148.06797455 -4.09113037 -146.87309265 -4.08776855 C-145.60915176 -4.07942993 -144.34521088 -4.07109131 -143.04296875 -4.0625 C-141.02953547 -4.05614505 -139.01610212 -4.04980003 -137.00266743 -4.04390717 C-134.86431765 -4.03697986 -132.7259859 -4.02789506 -130.58764648 -4.01831055 C-123.26028275 -3.98642232 -115.93289611 -3.97391318 -108.60546875 -3.96875 C-107.52001078 -3.96792671 -107.52001078 -3.96792671 -106.41262436 -3.96708679 C-92.1383756 -3.96119064 -77.8828708 -4.23073924 -63.61717224 -4.71418762 C-12.84655209 -6.42327605 -12.84655209 -6.42327605 0 0 Z " fill="#FCC42B" transform="translate(486,408)"/>
<path d="M0 0 C6.38710296 4.85152768 9.32155557 10.29757972 10.66796875 18.203125 C11.30415008 30.12698083 6.85575332 43.57804244 -0.7578125 52.703125 C-1.304375 53.38503906 -1.8509375 54.06695312 -2.4140625 54.76953125 C-4.12824722 56.82265704 -5.91088805 58.76900669 -7.7578125 60.703125 C-8.31726563 61.3115625 -8.87671875 61.92 -9.453125 62.546875 C-19.67164054 72.63268255 -34.00872462 74.99062497 -47.75 75.0222168 C-56.14444275 74.90989475 -62.19941343 73.73154974 -68.6953125 68.203125 C-76.73528303 58.45770618 -76.81907038 50.09830571 -75.7578125 37.703125 C-74.92210716 33.9763309 -73.64172923 31.00617637 -71.7578125 27.703125 C-71.4071875 26.96449219 -71.0565625 26.22585938 -70.6953125 25.46484375 C-64.99186192 13.99853166 -54.71218618 3.52343697 -42.7578125 -1.296875 C-42.03851563 -1.59722656 -41.31921875 -1.89757812 -40.578125 -2.20703125 C-28.00799539 -6.52424829 -11.60184641 -6.8165151 0 0 Z " fill="#28598A" transform="translate(413.7578125,315.296875)"/>
<path d="M0 0 C6.93 0 13.86 0 21 0 C21.07490396 10.93597847 21.05672582 21.82451458 20.5625 32.75 C20.52326416 33.64090332 20.48402832 34.53180664 20.44360352 35.44970703 C20.17175707 41.0003835 19.66456128 46.482466 19 52 C19.86334635 50.27330729 20.7266634 48.54659992 21.58984375 46.81982422 C22.3276053 45.3446293 23.06589501 43.86969842 23.8046875 42.39501953 C25.33622323 39.33665015 26.86460857 36.27776579 28.36328125 33.203125 C31.34175812 27.10287685 34.67559018 21.22642139 38.0703125 15.3515625 C40.08796465 11.84721929 42.0521414 8.31723794 43.9921875 4.76953125 C44.92238935 3.13626986 45.95739701 1.56390449 47 0 C49.15478516 -0.34057617 49.15478516 -0.34057617 51.7890625 -0.29296875 C52.73007812 -0.28330078 53.67109375 -0.27363281 54.640625 -0.26367188 C56.11789062 -0.2259668 56.11789062 -0.2259668 57.625 -0.1875 C59.11386719 -0.16719727 59.11386719 -0.16719727 60.6328125 -0.14648438 C63.08908072 -0.11105743 65.54427285 -0.06166196 68 0 C68.1661172 16.02108104 67.65221114 31.99307343 67 48 C70.15111439 42.83577948 73.27074287 37.71732243 75.875 32.25 C78.39781711 27.10530229 81.15383313 22.12633368 84.02319336 17.17016602 C86.72826428 12.49682153 89.32115691 7.77113764 91.87109375 3.01171875 C93 1 93 1 94 0 C95.4887186 -0.08669432 96.981445 -0.10703494 98.47265625 -0.09765625 C99.37177734 -0.09443359 100.27089844 -0.09121094 101.19726562 -0.08789062 C102.61555664 -0.07532227 102.61555664 -0.07532227 104.0625 -0.0625 C105.4865918 -0.05573242 105.4865918 -0.05573242 106.93945312 -0.04882812 C109.29303065 -0.0370011 111.64648477 -0.02052025 114 0 C113.06758496 1.91914553 112.12885525 3.83522386 111.1875 5.75 C110.66542969 6.81734375 110.14335937 7.8846875 109.60546875 8.984375 C108.23374347 11.560949 106.78614791 13.70929054 105 16 C104.566875 16.86625 104.13375 17.7325 103.6875 18.625 C100.52733704 24.94532592 96.77513425 30.90462162 92.8125 36.75 C90.57352392 40.06507311 88.76146865 43.40366817 87 47 C84.11733149 52.0381774 81.06939745 56.94567118 77.8125 61.75 C74.92646588 66.01533354 72.69339308 70.45423146 70.5859375 75.15234375 C68 78 68 78 65.70654297 78.48413086 C62.86623316 78.5915895 60.08839988 78.52240026 57.25 78.375 C56.26644531 78.34792969 55.28289062 78.32085937 54.26953125 78.29296875 C51.84412577 78.22232587 49.42318055 78.12376119 47 78 C46.86879073 68.90282367 47.06602998 59.84008979 47.4375 50.75 C47.47673584 49.75742187 47.51597168 48.76484375 47.55639648 47.7421875 C47.84156793 41.13890861 48.34347444 34.57653336 49 28 C46.95672267 31.45243411 45.11209223 34.73195337 43.5625 38.4375 C42.38298031 41.12680488 41.26195946 43.26062619 39.6875 45.6875 C37.63862782 48.86720372 35.91035156 52.10110857 34.25 55.5 C30.48558374 63.18650441 26.2318027 70.56228617 22 78 C14.74 78 7.48 78 0 78 C0 52.26 0 26.52 0 0 Z " fill="#295A8A" transform="translate(234,312)"/>
<path d="M0 0 C5.19200215 -0.09993489 10.38342719 -0.17196401 15.57617188 -0.21972656 C17.33733897 -0.23966673 19.0984414 -0.26682911 20.859375 -0.30175781 C44.15172473 -0.75172366 44.15172473 -0.75172366 53 6.4375 C53.99 7.7059375 53.99 7.7059375 55 9 C55.7425 9.886875 56.485 10.77375 57.25 11.6875 C61.69533863 17.56169748 60.69560744 25.9164975 60 33 C58.33202487 41.88973512 54.6142802 49.92802751 49 57 C48.55011719 57.61101562 48.10023438 58.22203125 47.63671875 58.8515625 C39.79460007 68.88063821 27.46610131 75.04476345 15 77 C12.13043806 77.08217936 9.28660347 77.11655274 6.41796875 77.09765625 C5.19670036 77.09553383 5.19670036 77.09553383 3.95075989 77.09336853 C1.36296844 77.08779317 -1.22473492 77.07524524 -3.8125 77.0625 C-5.57226437 77.05748181 -7.33203011 77.05291946 -9.09179688 77.04882812 C-13.39456494 77.03783181 -17.69726756 77.02058421 -22 77 C-21.55913606 70.25830869 -20.4203968 64.26313362 -18.25 57.875 C-17.70029084 56.19538776 -17.15081483 54.51569919 -16.6015625 52.8359375 C-16.32860352 52.01319336 -16.05564453 51.19044922 -15.77441406 50.34277344 C-14.69299762 47.07125005 -13.65555134 43.78794952 -12.625 40.5 C-12.43284912 39.88842041 -12.24069824 39.27684082 -12.04272461 38.64672852 C-9.51452966 30.53789589 -7.14533601 22.38009108 -4.76611328 14.2265625 C-4.43724121 13.10636719 -4.10836914 11.98617188 -3.76953125 10.83203125 C-3.33024292 9.32733276 -3.33024292 9.32733276 -2.88208008 7.79223633 C-2.04179445 5.1323009 -1.07208958 2.57413329 0 0 Z " fill="#28598A" transform="translate(524,312)"/>
<path d="M0 0 C5.94070658 -0.09953497 11.88091827 -0.17178154 17.82226562 -0.21972656 C19.83960435 -0.23973216 21.8568859 -0.2669456 23.87402344 -0.30175781 C26.78855573 -0.35076577 29.70231559 -0.37307964 32.6171875 -0.390625 C33.50614716 -0.41127014 34.39510681 -0.43191528 35.31100464 -0.45318604 C42.75115008 -0.45579939 50.61535226 1.18285532 56.125 6.5625 C59.11751791 12.04878283 58.67801687 17.09605022 57.62890625 23.13671875 C55.7282986 29.59878477 51.04538845 34.72574079 46 39 C42.11894855 41.10644428 38.19669357 42.64521153 34 44 C33.01 44.33 32.02 44.66 31 45 C31.91265625 45.81404297 31.91265625 45.81404297 32.84375 46.64453125 C35.22162255 49.24209855 36.23403593 51.41566719 37.5 54.6875 C38.12841797 56.27111328 38.12841797 56.27111328 38.76953125 57.88671875 C39.17558594 58.91410156 39.58164062 59.94148438 40 61 C40.71840238 62.67133474 41.44635589 64.3386249 42.1875 66 C42.49042969 66.680625 42.79335938 67.36125 43.10546875 68.0625 C43.73082577 69.41698508 44.40464786 70.7496634 45.11328125 72.0625 C46 74 46 74 46 77 C38.41 77 30.82 77 23 77 C21.948125 74.07125 20.89625 71.1425 19.8125 68.125 C16.81865711 59.95313592 16.81865711 59.95313592 13.4375 51.9375 C13.10621094 51.20402344 12.77492188 50.47054687 12.43359375 49.71484375 C10.36614358 47.24179027 8.05043025 46.8075899 5 46 C4.75765625 46.98097656 4.5153125 47.96195312 4.265625 48.97265625 C1.94171755 58.34309996 -0.49011518 67.67757068 -3 77 C-9.6 77 -16.2 77 -23 77 C-21.24318418 70.43505668 -19.40939878 63.89691851 -17.5 57.375 C-17.29866455 56.68349854 -17.0973291 55.99199707 -16.88989258 55.27954102 C-15.85978987 51.77851405 -14.77692474 48.30663278 -13.6015625 44.8515625 C-11.08784204 37.39247522 -8.97932057 29.80377084 -6.78515625 22.24609375 C-6.44097656 21.07175781 -6.09679687 19.89742188 -5.7421875 18.6875 C-5.4313623 17.61886719 -5.12053711 16.55023438 -4.80029297 15.44921875 C-4 13 -4 13 -3 12 C-2.63039006 10.55043603 -2.30340007 9.08985345 -2 7.625 C-1.45118408 4.99239863 -0.85272538 2.55817615 0 0 Z " fill="#29598A" transform="translate(445,312)"/>
<path d="M0 0 C-1.42630308 3.33049122 -3.15014396 5.31738937 -5.875 7.6875 C-6.55304688 8.28949219 -7.23109375 8.89148438 -7.9296875 9.51171875 C-10.07864801 11.05653753 -11.3800394 11.7282624 -14 12 C-16.03515625 11.4765625 -16.03515625 11.4765625 -18.0625 10.625 C-18.73410156 10.34914063 -19.40570313 10.07328125 -20.09765625 9.7890625 C-21.03931641 9.39847656 -21.03931641 9.39847656 -22 9 C-25.59001609 7.80332797 -28.5904839 7.79461119 -32.375 7.75 C-33.68210938 7.72421875 -34.98921875 7.6984375 -36.3359375 7.671875 C-41.06362668 8.09525015 -43.5673903 9.5673903 -46.875 12.875 C-48.1901153 14.97694532 -48.1901153 14.97694532 -48.0625 17.5625 C-46.51926612 21.10286008 -44.5217482 21.51002961 -41 23 C-38.2530495 23.7312524 -35.47572751 24.26378278 -32.6875 24.8125 C-24.54608964 26.58343594 -18.03597471 28.86003449 -12.9375 35.8125 C-11.06725276 42.1713406 -11.26952842 47.05973499 -14.0625 53.125 C-18.86273736 61.77347235 -25.01357636 66.15879999 -34 70 C-34.69351563 70.29777344 -35.38703125 70.59554687 -36.1015625 70.90234375 C-38.04972705 71.68238573 -40.00081016 72.36280802 -42 73 C-42.93972656 73.309375 -42.93972656 73.309375 -43.8984375 73.625 C-56.7224897 77.16266957 -74.67017807 76.39060993 -86.375 69.8125 C-87.24125 69.214375 -88.1075 68.61625 -89 68 C-87.55575365 64.76138697 -85.74227753 62.38030837 -83.375 59.75 C-82.74335938 59.04359375 -82.11171875 58.3371875 -81.4609375 57.609375 C-80.97882813 57.07828125 -80.49671875 56.5471875 -80 56 C-75.2421875 56.875 -75.2421875 56.875 -73.0625 58 C-67.81018389 60.54657751 -61.71466549 60.18278493 -56 60.1875 C-55.21882813 60.19974609 -54.43765625 60.21199219 -53.6328125 60.22460938 C-47.95375373 60.23895043 -43.15366757 59.86263141 -38.6875 56 C-35.81128825 52.59115644 -35.90453417 50.39142801 -36 46 C-42.76667937 43.0688117 -49.57339686 40.90655942 -56.703125 39.02734375 C-62.62321036 37.18257782 -66.49210694 35.1968786 -70 30 C-71.86876744 24.39369768 -71.94930963 18.32390468 -69.5 12.875 C-64.08335802 3.50004272 -55.9106817 -1.98844007 -45.671875 -4.96875 C-29.19400697 -8.88859526 -15.28277924 -6.98793745 0 0 Z " fill="#295A8A" transform="translate(225,316)"/>
<path d="M0 0 C0.66 0.556875 1.32 1.11375 2 1.6875 C2.5259375 2.10128906 3.051875 2.51507813 3.59375 2.94140625 C6.79127903 6.91167147 5.50453 12.92089281 5 17.6875 C2.70911363 29.95132116 -1.97170272 42.66486217 -12 50.6875 C-17.84472446 54.07744019 -23.31835303 54.43208236 -30 53.6875 C-32.67509903 52.95536763 -34.5556927 52.06906499 -37 50.6875 C-40.64846419 43.39057162 -38.18890906 30.32931083 -36 22.6875 C-32.18820198 13.15800495 -27.64919553 5.45363035 -19 -0.3125 C-12.91076728 -1.89570051 -5.83117594 -2.55113947 0 0 Z " fill="#FBFCFD" transform="translate(397,324.3125)"/>
<path d="M0 0 C4.22905894 0.13798651 7.33964443 0.6169133 10.81616211 3.07055664 C14.10132214 6.62828454 14.48283469 9.80878703 14.69116211 14.57055664 C14.06441006 25.87447751 10.28679353 38.05652929 2.14819336 46.25024414 C-3.86849223 51.61266328 -7.89013648 52.80512234 -15.87133789 52.63305664 C-16.66411133 52.6240332 -17.45688477 52.61500977 -18.27368164 52.60571289 C-20.22303071 52.58222676 -22.17222364 52.54635801 -24.12133789 52.50805664 C-23.59914945 47.19333869 -22.68855903 42.77251849 -20.74633789 37.75805664 C-18.78697741 32.47897968 -17.23241608 27.28737103 -15.94165039 21.81274414 C-14.89986425 17.61583424 -13.71053967 13.4703766 -12.49633789 9.32055664 C-12.2778418 8.56476318 -12.0593457 7.80896973 -11.83422852 7.03027344 C-9.61177896 -0.51203491 -7.7588788 0.03036203 0 0 Z " fill="#F8FAFB" transform="translate(549.121337890625,323.491943359375)"/>
<path d="M0 0 C0.66902344 -0.020625 1.33804687 -0.04125 2.02734375 -0.0625 C6.48034234 -0.0974941 9.17834992 0.59140333 12.75 3.25 C13.75 4.25 13.75 4.25 14.0625 7.375 C13.70767148 11.77487365 12.77690647 14.98029355 9.75 18.25 C4.7466042 21.5127566 0.6290909 21.62767758 -5.125 21.4375 C-6.300625 21.41719727 -6.300625 21.41719727 -7.5 21.39648438 C-9.41696782 21.36141789 -11.33357751 21.30762072 -13.25 21.25 C-12.44937136 16.94662107 -11.37416929 12.72785405 -10.25 8.5 C-10.07210938 7.81550781 -9.89421875 7.13101562 -9.7109375 6.42578125 C-7.93007157 -0.28569109 -6.57570263 0.04953448 0 0 Z " fill="#F8F9FB" transform="translate(468.25,323.75)"/>
</svg>
